<?xml version="1.0" encoding="UTF-8" standalone="no"?>
<!-- Created with Inkscape (http://www.inkscape.org/) -->

<svg
   version="1.1"
   id="svg312"
   width="121.75899"
   height="35.11182"
   viewBox="0 0 121.75899 35.111821"
   sodipodi:docname="arrow-slider.png"
   xmlns:inkscape="http://www.inkscape.org/namespaces/inkscape"
   xmlns:sodipodi="http://sodipodi.sourceforge.net/DTD/sodipodi-0.dtd"
   xmlns="http://www.w3.org/2000/svg"
   xmlns:svg="http://www.w3.org/2000/svg">
  <defs
     id="defs316" />
  <sodipodi:namedview
     id="namedview314"
     pagecolor="#505050"
     bordercolor="#eeeeee"
     borderopacity="1"
     inkscape:showpageshadow="0"
     inkscape:pageopacity="0"
     inkscape:pagecheckerboard="0"
     inkscape:deskcolor="#505050"
     showgrid="false" />
  <g
     inkscape:groupmode="layer"
     inkscape:label="Image"
     id="g318"
     transform="translate(-5.2814655,-48.845836)">
    <path
       style="fill:#000000;stroke-width:1.33333"
       d="M 13.691246,75.497186 5.2814656,66.011406 13.78796,57.428621 c 4.678572,-4.720532 8.973828,-8.582785 9.545013,-8.582785 2.633712,0 0.511127,3.961291 -5.030953,9.389056 l -6.06947,5.944277 8.756415,0.666667 c 11.700573,0.89082 11.803423,3.22849 0.16422,3.73256 l -9.218305,0.39923 6.493307,6.59244 c 4.564926,4.63461 6.074496,7.01124 5.083073,8.00267 -0.991423,0.99142 -3.907769,-1.40685 -9.820014,-8.07555 z m 94.236234,8.37559 c -0.42325,-0.68484 2.23175,-4.19606 5.89999,-7.80272 l 6.66955,-6.55755 -9.72943,-0.66667 c -5.35119,-0.36667 -9.72943,-1.26667 -9.72943,-2 0,-0.73347 4.45051,-1.511628 9.89227,-1.729634 l 9.89226,-0.396298 -7.02272,-7.111055 c -3.86249,-3.91108 -6.4688,-7.453394 -5.79178,-7.871812 0.67701,-0.418417 5.23623,3.275471 10.1316,8.208639 l 8.90066,8.9694 -9.1717,9.10143 c -5.04445,5.00578 -9.51801,8.5411 -9.94127,7.85627 z M 34.441872,67.626386 c -0.4293,-0.69463 -0.212219,-1.6142 0.482405,-2.0435 0.694623,-0.429302 1.614197,-0.212221 2.043499,0.4824 0.4293,0.69463 0.212218,1.6142 -0.482406,2.0435 -0.694622,0.4293 -1.614197,0.21222 -2.043498,-0.4824 z m 6.666666,0 c -0.4293,-0.69463 -0.212218,-1.6142 0.482406,-2.0435 0.694622,-0.429302 1.614197,-0.212221 2.043498,0.4824 0.4293,0.69463 0.212219,1.6142 -0.482405,2.0435 -0.694623,0.4293 -1.614197,0.21222 -2.043499,-0.4824 z m 6.666667,0 c -0.4293,-0.69463 -0.212219,-1.6142 0.482405,-2.0435 0.694623,-0.429302 1.614197,-0.212221 2.043499,0.4824 0.4293,0.69463 0.212218,1.6142 -0.482406,2.0435 -0.694622,0.4293 -1.614197,0.21222 -2.043498,-0.4824 z m 6.666666,0 c -0.4293,-0.69463 -0.212218,-1.6142 0.482406,-2.0435 0.694622,-0.429302 1.614197,-0.212221 2.043498,0.4824 0.4293,0.69463 0.212219,1.6142 -0.482405,2.0435 -0.694623,0.4293 -1.614197,0.21222 -2.043499,-0.4824 z m 6.666667,0 c -0.4293,-0.69463 -0.212219,-1.6142 0.482405,-2.0435 0.694623,-0.429302 1.614197,-0.212221 2.043499,0.4824 0.4293,0.69463 0.212218,1.6142 -0.482406,2.0435 -0.694622,0.4293 -1.614197,0.21222 -2.043498,-0.4824 z m 6.666666,0 c -0.4293,-0.69463 -0.212218,-1.6142 0.482406,-2.0435 0.694622,-0.429302 1.614197,-0.212221 2.043498,0.4824 0.4293,0.69463 0.212219,1.6142 -0.482405,2.0435 -0.694623,0.4293 -1.614197,0.21222 -2.043499,-0.4824 z m 6.666667,0 c -0.4293,-0.69463 -0.212219,-1.6142 0.482405,-2.0435 0.694623,-0.429302 1.614197,-0.212221 2.043499,0.4824 0.4293,0.69463 0.212218,1.6142 -0.482406,2.0435 -0.694622,0.4293 -1.614197,0.21222 -2.043498,-0.4824 z m 6.666666,0 c -0.4293,-0.69463 -0.212218,-1.6142 0.482406,-2.0435 0.694622,-0.429302 1.614197,-0.212221 2.043498,0.4824 0.4293,0.69463 0.212219,1.6142 -0.482405,2.0435 -0.694623,0.4293 -1.614197,0.21222 -2.043499,-0.4824 z m 6.666667,0 c -0.4293,-0.69463 -0.212219,-1.6142 0.482405,-2.0435 0.694623,-0.429302 1.614197,-0.212221 2.043499,0.4824 0.4293,0.69463 0.212218,1.6142 -0.482406,2.0435 -0.694622,0.4293 -1.614197,0.21222 -2.043498,-0.4824 z m 6.666666,0 c -0.4293,-0.69463 -0.212218,-1.6142 0.482406,-2.0435 0.694622,-0.429302 1.614197,-0.212221 2.043498,0.4824 0.4293,0.69463 0.212219,1.6142 -0.482405,2.0435 -0.694623,0.4293 -1.614197,0.21222 -2.043499,-0.4824 z"
       id="path1101" />
  </g>
</svg>
