<?xml version="1.0" encoding="UTF-8" standalone="no"?>
<!-- Created with Inkscape (http://www.inkscape.org/) -->

<svg
   version="1.1"
   id="svg228"
   width="512"
   height="512"
   viewBox="0 0 512 512"
   sodipodi:docname="double-arrow.png"
   xmlns:inkscape="http://www.inkscape.org/namespaces/inkscape"
   xmlns:sodipodi="http://sodipodi.sourceforge.net/DTD/sodipodi-0.dtd"
   xmlns="http://www.w3.org/2000/svg"
   xmlns:svg="http://www.w3.org/2000/svg">
  <defs
     id="defs232" />
  <sodipodi:namedview
     id="namedview230"
     pagecolor="#505050"
     bordercolor="#eeeeee"
     borderopacity="1"
     inkscape:showpageshadow="0"
     inkscape:pageopacity="0"
     inkscape:pagecheckerboard="0"
     inkscape:deskcolor="#505050"
     showgrid="false" />
  <g
     inkscape:groupmode="layer"
     inkscape:label="Image"
     id="g234">
    <path
       style="fill:#171a21;fill-opacity:1;stroke-width:0.927657"
       d="m 258.72628,491.95986 c -2.7938,-0.75076 -6.96825,-2.44178 -9.27657,-3.75779 C 246.82614,486.7063 206.40535,446.98727 141.6276,382.25187 42.42168,283.11081 37.872147,278.41756 34.947086,272.20087 c -2.849083,-6.05521 -3.055357,-7.15116 -3.055357,-16.23399 0,-9.0812 0.206682,-10.17987 3.053855,-16.23399 2.924531,-6.2186 7.461931,-10.8983 107.144346,-110.50445 C 255.22157,16.183326 249.25741,21.641201 262.31019,19.213783 c 24.37223,-4.532492 47.06633,17.743925 43.01067,42.219063 -2.2318,13.468462 2.20859,8.513114 -94.33298,105.272724 -48.50219,48.61173 -88.37152,88.59392 -88.59851,88.84933 -0.227,0.2554 39.45292,40.42299 88.17759,89.26131 96.96312,97.18923 92.52609,92.24034 94.7539,105.68469 4.32972,26.12919 -20.71492,48.41346 -46.59458,41.45896 z m 175.87765,0.45529 C 424.53126,490.05048 425.27807,490.75001 316.09491,381.4094 202.12858,267.27871 209.00354,274.80684 206.51346,261.41704 c -1.3064,-7.02472 0.26667,-16.02048 4.03915,-23.09836 2.19486,-4.11798 23.61047,-25.98104 107.31232,-109.5545 97.96955,-97.819264 104.93319,-104.567672 110.31995,-106.910202 18.75051,-8.15401 40.57088,0.111904 49.26415,18.662189 2.24105,4.782092 2.50087,6.396578 2.50087,15.540712 0,17.300788 7.77257,8.201868 -94.49568,110.620791 l -89.15337,89.2847 89.59177,89.75303 c 102.30116,102.48528 94.05646,92.8272 94.05698,110.18098 2.7e-4,9.67555 -0.16256,10.55455 -3.03696,16.39327 -7.67403,15.58817 -25.5054,24.07024 -42.30871,20.1255 z"
       id="path346" />
  </g>
</svg>
