<svg width="51" height="50" viewBox="0 0 51 50" fill="none" xmlns="http://www.w3.org/2000/svg">
<path d="M10.0313 46.659C8.70051 45.3282 8.70051 10.021 10.0313 8.69026C10.5469 8.17464 12.6187 7.75276 14.6352 7.75276C17.1735 7.75276 18.44 7.3922 18.7513 6.58089C18.9986 5.93636 19.6612 5.40901 20.2238 5.40901C20.7863 5.40901 21.8486 4.70589 22.5844 3.84651C24.293 1.85097 26.707 1.85097 28.4157 3.84651C29.1515 4.70589 30.2138 5.40901 30.7763 5.40901C31.3388 5.40901 32.0014 5.93636 32.2488 6.58089C32.5601 7.3922 33.8265 7.75276 36.3649 7.75276C38.3814 7.75276 40.4532 8.17464 40.9688 8.69026C42.2996 10.021 42.2996 45.3282 40.9688 46.659C39.6472 47.9806 11.3528 47.9806 10.0313 46.659ZM40.3438 27.6746V9.31526H36.5211C33.8439 9.31526 32.5637 9.66641 32.2488 10.4871C31.5961 12.1879 19.404 12.1879 18.7513 10.4871C18.4364 9.66641 17.1562 9.31526 14.4789 9.31526H10.6563V27.6746V46.034H25.5H40.3438V27.6746ZM12.2188 28.8465V13.2215H25.5H38.7813V28.8465V44.4715H25.5H12.2188V28.8465ZM37.2188 28.8465V14.784H25.5H13.7813V28.8465V42.909H25.5H37.2188V28.8465ZM18.113 37.245C19.0108 33.0977 22.9136 26.0424 26.2502 22.535C27.9644 20.733 29.161 18.9254 28.9093 18.5181C28.656 18.1083 29.2753 17.8942 30.2961 18.0386C31.5328 18.2136 32.1407 18.8145 32.1407 19.8621C32.1407 20.8669 31.6886 21.351 30.8744 21.2183C28.1887 20.7805 21.0151 31.046 19.6748 37.245C19.3729 38.6414 18.7743 39.784 18.3446 39.784C17.8713 39.784 17.78 38.7833 18.113 37.245ZM23.9375 35.3197C23.9375 34.0548 24.3933 33.534 25.5 33.534C26.6068 33.534 27.0625 34.0548 27.0625 35.3197C27.0625 36.5846 26.6068 37.1054 25.5 37.1054C24.3933 37.1054 23.9375 36.5846 23.9375 35.3197ZM30.1875 28.2885C30.1875 27.0236 30.6433 26.5028 31.75 26.5028C32.8568 26.5028 33.3125 27.0236 33.3125 28.2885C33.3125 29.5534 32.8568 30.0742 31.75 30.0742C30.6433 30.0742 30.1875 29.5534 30.1875 28.2885ZM17.6875 19.6947C17.6875 18.4298 18.1433 17.909 19.25 17.909C20.3568 17.909 20.8125 18.4298 20.8125 19.6947C20.8125 20.9596 20.3568 21.4804 19.25 21.4804C18.1433 21.4804 17.6875 20.9596 17.6875 19.6947ZM30.9688 8.53401C30.9688 7.12032 30.4479 6.97151 25.5 6.97151C20.5521 6.97151 20.0313 7.12032 20.0313 8.53401C20.0313 9.9477 20.5521 10.0965 25.5 10.0965C30.4479 10.0965 30.9688 9.9477 30.9688 8.53401ZM27.4532 4.62776C27.1876 4.19808 26.3087 3.84651 25.5 3.84651C24.6914 3.84651 23.8125 4.19808 23.5469 4.62776C23.2644 5.08479 24.075 5.40901 25.5 5.40901C26.9251 5.40901 27.7356 5.08479 27.4532 4.62776Z" fill="white"/>
</svg>
