<svg width="61" height="60" viewBox="0 0 61 60" fill="none" xmlns="http://www.w3.org/2000/svg">
<path d="M28.1687 55.2871C22.0907 54.6589 16.8806 52.1903 12.5882 47.905C8.64912 43.9723 6.24107 39.2303 5.3828 33.7158C5.07325 31.7269 5.07325 28.2644 5.3828 26.2755C6.24299 20.7487 8.63537 16.0367 12.5882 12.0839C14.7747 9.89745 16.6803 8.5266 19.3395 7.22718C21.8445 6.00311 24.0722 5.2999 26.7798 4.87849C28.771 4.56858 32.2325 4.56887 34.2201 4.87911C36.9694 5.30823 39.1597 5.99903 41.6604 7.22575C44.3335 8.53702 46.2283 9.90046 48.4117 12.0839C50.5951 14.2673 51.9586 16.1621 53.2699 18.8352C54.4845 21.3114 55.195 23.5634 55.6171 26.2755C55.9267 28.2644 55.9267 31.7269 55.6171 33.7158C55.1963 36.4194 54.4943 38.6448 53.2701 41.1561C51.9714 43.8203 50.2315 46.1953 48.0236 48.3179C46.0745 50.1916 44.0966 51.5737 41.6604 52.7641C39.1611 53.9854 36.8776 54.706 34.2507 55.1026C32.7219 55.3334 29.5481 55.4296 28.1687 55.2871ZM32.6824 38.2792V30.8885H34.7657C36.6833 30.8885 36.8491 30.8747 36.8499 30.7149C36.8504 30.6194 36.962 29.4754 37.0979 28.1726C37.2338 26.8699 37.345 25.765 37.345 25.7173C37.345 25.6697 36.296 25.6307 35.0137 25.6307H32.6824V23.9344C32.6824 21.2689 32.6857 21.2657 35.4056 21.2657H37.2458V18.6765V16.0872L34.3441 16.1321C31.1374 16.1818 30.821 16.2291 29.5487 16.8501C27.9663 17.6225 26.934 19.2041 26.6343 21.3153C26.5801 21.6972 26.5348 22.8244 26.5338 23.8202L26.5318 25.6307H25.0933H23.6549V28.2596V30.8885H25.0933H26.5318V38.213C26.5318 42.2416 26.5615 45.5674 26.5979 45.6037C26.6343 45.6401 28.0182 45.6699 29.6733 45.6699H32.6824L32.6824 38.2792Z" fill="white"/>
</svg>
