<svg width="51" height="50" viewBox="0 0 51 50" fill="none" xmlns="http://www.w3.org/2000/svg">
<path d="M6.58882 44.4524C5.98933 44.2526 5.49992 43.7891 5.50122 43.4224C5.5034 42.8081 9.92868 42.7686 26.0945 43.2387C32.7137 43.4312 38.9394 42.1166 41.9972 39.8806C43.5872 38.718 43.8959 37.3975 43.722 32.502C43.6055 29.2227 42.8327 24.6191 42.0045 22.2719C40.2746 17.3687 40.0594 15.3966 41.4081 16.8058C43.0868 18.5598 45.4988 28.5698 45.4988 33.7823C45.4988 42.531 41.1437 44.4964 21.3388 44.6854C13.8258 44.7571 7.1883 44.6522 6.58882 44.4524ZM16.7488 40.0353C15.5113 39.4384 14.4988 38.5531 14.4988 38.0678C14.4988 37.5824 15.3693 37.6512 16.4331 38.2206C17.4969 38.7899 20.2235 39.2557 22.4921 39.2557C24.9873 39.2557 26.3727 39.6508 25.9988 40.2557C25.1952 41.556 19.6269 41.4233 16.7488 40.0353ZM33.5106 33.0767C31.5546 31.483 30.0633 31.1574 26.5387 31.5547C22.7864 31.9777 21.5723 31.6539 19.0959 29.5702C16.0654 27.0201 11.802 26.742 6.99885 28.7811C5.22799 29.5329 5.15358 29.4399 6.34933 27.9694C9.41637 24.1977 20.2365 25.5238 21.9067 29.8761C22.3504 31.0325 22.907 31.1077 24.5427 30.2323C25.7099 29.6076 27.9692 29.4198 29.7118 29.8025L32.8075 30.4824L32.1532 24.2224C31.7933 20.7794 31.4988 17.2376 31.4988 16.3519C31.4988 15.0574 30.6182 14.8114 27.012 15.0982C22.9255 15.4232 22.4347 15.2172 21.512 12.7903C19.9918 8.7918 20.1985 8.27918 23.9667 6.70472C29.4017 4.43383 32.7508 4.86556 35.9988 8.25575C37.5796 9.90575 38.4086 11.2558 37.8409 11.2558C37.2733 11.2558 35.9943 10.3558 34.9988 9.25575C33.1905 7.25751 27.5374 6.53626 24.0806 7.86274C22.3249 8.53647 21.9379 11.7911 23.4988 12.7558C24.0488 13.0957 24.4988 12.6722 24.4988 11.8148C24.4988 10.9573 25.2289 10.2558 26.1213 10.2558C27.4615 10.2558 27.5237 10.5209 26.4788 11.7799C24.7219 13.8968 25.7196 14.5025 28.9441 13.2766C30.4415 12.7073 32.022 12.4611 32.4564 12.7295C32.8907 12.9979 33.4455 17.0182 33.6893 21.6636C33.9382 26.4042 34.6932 30.785 35.4103 31.649C37.5383 34.2132 36.1687 35.2425 33.5106 33.0767Z" fill="white"/>
</svg>
