<svg width="61" height="60" viewBox="0 0 61 60" fill="none" xmlns="http://www.w3.org/2000/svg">
<path d="M28.2222 54.9239C23.1446 54.4004 18.4876 52.4793 14.6618 49.3302C9.87701 45.3917 6.69475 39.7839 5.79079 33.6976C4.79991 27.0261 6.50405 20.3781 10.617 14.8703C11.5123 13.6714 14.1773 11.0064 15.3762 10.1111C22.2117 5.00669 30.8032 3.65243 38.824 6.41508C39.3883 6.60944 40.5535 7.11332 41.4134 7.53482C44.247 8.92381 45.8822 10.0967 48.1583 12.3727C50.3942 14.6087 51.6773 16.3898 52.9934 19.0848C54.1516 21.4563 54.9213 23.9771 55.301 26.6415C55.5434 28.3428 55.5458 31.7093 55.3058 33.3836C54.6952 37.643 53.0269 41.664 50.424 45.1494C49.5235 46.3552 46.8611 49.0176 45.6553 49.9181C42.2143 52.4878 38.3454 54.118 34.2035 54.7434C32.7078 54.9692 29.5776 55.0637 28.2222 54.9239ZM36.5256 44.2761C39.2644 44.0786 40.8866 43.46 42.3663 42.0485C43.8813 40.6035 44.5879 38.8244 44.7832 35.9631C44.9083 34.1312 44.9072 25.8806 44.7816 24.0348C44.6769 22.496 44.3968 21.1771 43.9713 20.2196C43.255 18.6078 41.74 17.1404 40.107 16.4769C38.3977 15.7823 36.8679 15.6505 30.5184 15.6505C25.7366 15.6505 23.7182 15.7358 22.5162 15.9886C19.829 16.5539 17.7407 18.3136 16.8584 20.7562C16.2721 22.3794 16.2304 22.8762 16.1801 28.84C16.1332 34.4051 16.2103 36.6636 16.493 38.0073C16.7142 39.0591 17.1786 40.17 17.7107 40.9204C19.2041 43.0263 21.225 44.0498 24.3284 44.2721C25.9181 44.3859 34.9608 44.3889 36.5256 44.2761ZM23.876 41.6312C21.2131 41.3115 19.5826 39.9062 19.0114 37.4387C18.8592 36.7809 18.8418 36.0201 18.8418 30.0125C18.8418 24.005 18.8592 23.2441 19.0114 22.5864C19.5163 20.4053 20.9112 19.0104 23.0923 18.5055C23.7501 18.3533 24.5109 18.3359 30.5184 18.3359C37.9735 18.3359 37.9505 18.3341 39.3697 19.0081C40.6839 19.6322 41.6398 20.9202 42.0255 22.5864C42.1777 23.2441 42.1951 24.005 42.1951 30.0125C42.1951 36.0201 42.1777 36.7809 42.0255 37.4387C41.6422 39.0945 40.7098 40.3497 39.3754 41.0063C38.026 41.6702 38.0231 41.6705 30.9582 41.696C27.4649 41.7087 24.278 41.6795 23.876 41.6312ZM32.1356 37.1902C34.0856 36.7597 35.8633 35.4619 36.8967 33.7144C38.1773 31.5486 38.1773 28.5042 36.8967 26.2995C36.4229 25.4837 35.0473 24.1081 34.2315 23.6343C32.0155 22.3471 29.0241 22.3469 26.8054 23.6337C25.9896 24.1068 24.6128 25.4836 24.1396 26.2994C22.8528 28.5181 22.853 31.5096 24.1403 33.7255C24.6141 34.5413 25.9897 35.9169 26.8054 36.3907C28.3682 37.2985 30.3193 37.5911 32.1357 37.1901L32.1356 37.1902ZM29.4079 34.6454C27.034 34.0708 25.4334 31.7081 25.8025 29.3234C26.2032 26.7343 28.6149 24.9256 31.1747 25.2943C33.782 25.6699 35.631 28.1391 35.2326 30.7132C34.8059 33.4698 32.0995 35.2969 29.4079 34.6454ZM38.7932 23.9481C39.1675 23.8067 39.6016 23.385 39.7643 23.0048C40.2365 21.9013 39.3937 20.6321 38.1889 20.6321C36.9794 20.6321 36.1461 21.8938 36.6147 23.0154C36.9585 23.8382 37.955 24.2649 38.7932 23.9481Z" fill="white"/>
</svg>
