<svg width="51" height="50" viewBox="0 0 51 50" fill="none" xmlns="http://www.w3.org/2000/svg">
<path d="M11.4987 43.0646C11.4987 38.1382 10.8029 35.8601 7.59734 30.2916C6.07851 27.6532 4.89793 24.9111 4.69113 23.5416C4.25846 20.6762 5.17558 15.0786 6.5045 12.4737C10.3201 4.9945 19.1855 1.45592 28.5724 3.66536C34.7266 5.11388 38.7153 8.94612 40.5761 15.1982C41.1551 17.1435 42.7444 20.5741 44.1078 22.8218C45.4713 25.0694 46.5076 27.3194 46.4109 27.8216C46.3142 28.3238 45.3944 29.2788 44.3669 29.9437C42.605 31.0839 42.4987 31.3001 42.4987 33.7449C42.4987 38.167 39.4916 41.4404 35.0359 41.8685L32.4987 42.1123V44.5487C32.4987 46.6518 32.3619 46.9851 31.4987 46.9851C30.5939 46.9851 30.4987 46.6518 30.4987 43.4851V39.9851H33.2735C36.3714 39.9851 38.6527 39.0366 39.5995 37.3549C39.9463 36.739 40.3467 34.7726 40.4894 32.9851C40.7405 29.8379 40.8079 29.7035 42.6223 28.7351C43.6528 28.1851 44.4966 27.5734 44.4973 27.3757C44.4981 27.178 43.4577 25.4072 42.1855 23.4404C40.9132 21.4737 39.5441 18.6077 39.1429 17.0714C37.126 9.34776 32.491 5.56683 24.4562 5.09084C14.4342 4.49714 7.38311 10.2615 6.62826 19.6653C6.32496 23.4437 7.10652 26.0643 9.78819 30.2606C12.5377 34.5631 13.1002 36.3828 13.3738 41.8601C13.6224 46.8369 13.599 46.9851 12.5642 46.9851C11.5674 46.9851 11.4987 46.7322 11.4987 43.0646ZM19.0223 30.3326C15.1215 29.0891 11.9796 23.8777 12.6478 19.7597C13.3585 15.3806 15.9036 12.5416 20.1327 11.4105C27.5074 9.43807 34.0741 16.3225 31.9737 23.8244C30.4659 29.2098 24.6569 32.1289 19.0223 30.3326ZM25.6631 28.3031C30.8004 26.1566 32.0528 19.4215 28.0575 15.4263C24.8142 12.183 20.1831 12.183 16.9399 15.4263C10.7566 21.6096 17.5792 31.6808 25.6631 28.3031ZM21.8424 26.6622C21.6534 26.4731 21.4987 25.3558 21.4987 24.1792V22.0399L19.1237 21.8875C17.4136 21.7778 16.7487 21.5251 16.7487 20.9851C16.7487 20.4464 17.4102 20.1925 19.0974 20.0838L21.446 19.9325L21.5974 17.5838C21.7061 15.8967 21.9599 15.2351 22.4987 15.2351C23.0374 15.2351 23.2913 15.8967 23.4 17.5838L23.5513 19.9325L25.9 20.0838C27.5871 20.1925 28.2487 20.4464 28.2487 20.9851C28.2487 21.5239 27.5871 21.7777 25.9 21.8864L23.5513 22.0377L23.4 24.3473C23.258 26.5141 22.6291 27.4488 21.8424 26.6622Z" fill="white"/>
</svg>
