<svg width="51" height="50" viewBox="0 0 51 50" fill="none" xmlns="http://www.w3.org/2000/svg">
<path d="M27.0929 45.2057C26.8064 44.9192 26.5643 43.4251 26.5549 41.8854C26.5363 38.8541 23.981 32.4452 22.7909 32.4452C22.388 32.4452 21.8381 33.6195 21.5689 35.0547C20.6916 39.731 15.5251 42.7465 10.5359 41.4943C8.89818 41.0832 8.55212 40.5862 8.74932 38.9281C8.93516 37.3655 9.65055 36.653 11.7283 35.961C14.3421 35.0904 14.5005 34.8225 15.3205 29.8856C16.1766 24.731 18.0576 20.7265 19.6225 20.7265C20.0773 20.7265 19.7485 21.8691 18.8918 23.2656C18.0351 24.662 17.098 27.5624 16.8093 29.7109C16.0018 35.7202 15.7515 36.1917 12.8628 37.1451C9.22808 38.3446 9.28796 40.2577 12.9602 40.2577C16.786 40.2577 19.8737 37.1106 20.6298 32.4403L21.1982 28.9296L23.828 31.7855C26.4032 34.5822 28.1215 38.8468 28.1302 42.4635C28.1333 43.7689 28.5184 44.2058 29.5017 44.0193C32.5347 43.4441 31.2859 35.0374 27.4343 30.1015C24.0618 25.7797 24.0127 25.5565 25.7996 22.6654C27.7369 19.5307 28.1808 19.4007 30.0176 21.4304C31.7107 23.3012 36.2034 24.1874 38.3017 23.0644C40.5896 21.8399 39.4733 20.7265 35.9578 20.7265C33.4656 20.7265 32.5483 20.2564 30.7256 18.0452C29.5101 16.5705 27.528 14.9885 26.321 14.5296C23.2824 13.3743 18.4272 13.4867 15.3218 14.7842C12.5268 15.9521 8.60327 20.4649 8.60327 22.5119C8.60327 24.9463 9.93342 24.5149 12.7253 21.1749C15.6299 17.7001 19.1258 16.0927 20.5913 17.5583C21.1698 18.1367 21.0305 18.3827 20.1244 18.3827C17.6665 18.3827 14.8079 20.2248 13.1812 22.8569C11.8927 24.9417 11.1125 25.4499 9.48943 25.2619C6.60172 24.9272 6.40161 22.1598 8.98305 18.259C11.3964 14.6121 16.0995 12.1751 20.7727 12.1499C23.8735 12.1332 23.9484 12.07 23.6091 9.75818C22.9406 5.20297 28.4918 2.39282 31.5291 5.74895C33.3501 7.76112 33.1364 10.0026 30.9255 12.0796L29.029 13.8613L31.4416 16.5126C33.0705 18.3027 34.5542 19.164 36.0087 19.164C39.274 19.164 40.6345 19.9375 40.6345 21.794C40.6345 22.7189 41.3376 23.9148 42.197 24.4514C45.4361 26.4743 43.4635 32.4452 39.5562 32.4452C36.5605 32.4452 34.893 30.6225 35.0113 27.4773C35.1037 25.0176 34.8807 24.6327 33.3627 24.6327C32.3972 24.6327 30.8031 24.0695 29.8203 23.3812C28.8376 22.6928 27.9567 22.2534 27.8629 22.4046C27.7691 22.5559 27.2284 23.2865 26.6613 24.0283C25.7713 25.1923 25.9634 25.7977 28.064 28.4499C33.6771 35.5371 34.4704 45.7265 29.4091 45.7265C28.4216 45.7265 27.3793 45.4921 27.0929 45.2057ZM42.0412 28.4721C42.3228 26.0498 40.5129 24.3181 38.4004 24.9886C34.8486 26.1159 35.9994 31.163 39.7105 30.7343C41.3047 30.5501 41.8626 30.0086 42.0412 28.4721ZM29.697 11.3515C32.4244 8.62416 31.2706 5.60323 27.6591 6.0155C25.8403 6.22312 25.3511 6.70123 25.1484 8.46905C24.9018 10.6198 26.0892 12.914 27.4489 12.914C27.826 12.914 28.8376 12.2109 29.697 11.3515Z" fill="white"/>
</svg>
