<?xml version="1.0" encoding="UTF-8" standalone="no"?>
<svg
   version="1.0"
   width="256pt"
   height="256pt"
   viewBox="0 0 256 256"
   preserveAspectRatio="xMidYMid"
   id="svg66"
   sodipodi:docname="peks-logo.svg"
   inkscape:export-filename="../../Pictures/Guerreros/peks-logo.svg"
   inkscape:export-xdpi="96"
   inkscape:export-ydpi="96"
   inkscape:version="1.2.2 (1:1.2.2+202212051550+b0a8486541)"
   xmlns:inkscape="http://www.inkscape.org/namespaces/inkscape"
   xmlns:sodipodi="http://sodipodi.sourceforge.net/DTD/sodipodi-0.dtd"
   xmlns="http://www.w3.org/2000/svg"
   xmlns:svg="http://www.w3.org/2000/svg">
  <defs
     id="defs70" />
  <sodipodi:namedview
     id="namedview68"
     pagecolor="#505050"
     bordercolor="#eeeeee"
     borderopacity="1"
     inkscape:showpageshadow="0"
     inkscape:pageopacity="0"
     inkscape:pagecheckerboard="0"
     inkscape:deskcolor="#505050"
     inkscape:document-units="pt"
     showgrid="false"
     inkscape:zoom="1.1704551"
     inkscape:cx="257.59212"
     inkscape:cy="224.27174"
     inkscape:window-width="1366"
     inkscape:window-height="732"
     inkscape:window-x="0"
     inkscape:window-y="0"
     inkscape:window-maximized="1"
     inkscape:current-layer="svg66" />
  <ellipse
     style="fill:#000000;fill-opacity:1;stroke-width:0.75"
     id="path1725"
     cx="129.23628"
     cy="128.41219"
     rx="95.008957"
     ry="103.56196" />
  <g
     transform="matrix(0.1,0,0,-0.1,1.2875921,256.7993)"
     fill="#000000"
     stroke="none"
     id="g64"
     style="fill:#b8a82f;fill-opacity:1">
    <path
       d="M 1079,2454 C 428,2337 -5,1725 106,1080 187,608 520,251 999,122 c 87,-23 114,-25 281,-25 167,0 194,2 281,25 359,97 634,317 787,631 286,587 54,1288 -524,1584 -229,117 -505,161 -745,117 z m 311,-614 v -90 H 1285 1180 V 1090 430 h -90 -90 v 750 750 h 195 195 z m 433,52 c 86,-43 156,-113 199,-199 31,-64 33,-73 33,-178 0,-103 -2,-114 -32,-177 -41,-88 -113,-160 -201,-201 -63,-30 -75,-32 -199,-35 l -133,-4 v 86 86 h 88 c 119,0 179,19 236,74 119,116 87,308 -65,387 -36,18 -65,23 -156,27 l -113,5 v 84 85 l 138,-4 c 132,-3 140,-4 205,-36 z m -906,-24 c 27,-31 35,-67 22,-111 -9,-32 -14,-37 -39,-37 -17,0 -30,1 -30,3 0,1 4,18 10,37 12,43 4,70 -21,70 -13,0 -25,-12 -35,-35 -33,-80 -92,-98 -145,-46 -29,29 -35,54 -23,99 5,16 14,22 34,22 25,0 27,-3 26,-42 -1,-37 2,-43 19,-43 12,0 25,11 34,30 24,53 51,75 91,75 25,0 43,-7 57,-22 z m 23,-401 c 0,-29 -7,-38 -52,-70 l -53,-37 h 53 c 51,0 52,0 52,-30 v -30 H 794 649 l 3,28 c 3,25 7,27 56,32 l 53,5 -56,33 c -47,28 -55,37 -55,63 0,16 4,29 8,29 5,0 37,-18 71,-40 34,-22 65,-40 69,-40 4,0 36,20 71,45 36,25 66,45 68,45 2,0 3,-15 3,-33 z M 710,1015 c 0,-43 1,-45 30,-45 28,0 30,2 30,41 0,38 1,40 28,37 23,-3 27,-8 30,-40 3,-32 7,-38 27,-38 21,0 24,5 27,43 3,38 6,42 31,45 l 27,3 v -76 -76 l -142,3 -143,3 -3,59 c -4,73 1,86 33,86 23,0 25,-4 25,-45 z m 95,-360 c 19,-18 25,-35 25,-70 v -45 h 55 c 55,0 55,0 55,-30 v -31 l -142,3 -143,3 v 73 c 0,68 2,76 28,98 38,32 90,32 122,-1 z"
       id="path60"
       style="fill:#b8a82f;fill-opacity:1" />
    <path
       d="m 717,613 c -4,-3 -7,-22 -7,-40 0,-33 2,-34 33,-31 25,2 33,8 35,26 6,38 -37,69 -61,45 z"
       id="path62"
       style="fill:#b8a82f;fill-opacity:1" />
  </g>
</svg>
